<mxfile host="app.diagrams.net" modified="2021-10-23T10:29:39.009Z" agent="5.0 (Windows NT 10.0; Win64; x64) AppleWebKit/537.36 (KHTML, like Gecko) Chrome/94.0.4606.81 Safari/537.36" etag="ZHxoCKUshZPkShb1QWji" version="15.5.8" type="github">
  <diagram id="R2lEEEUBdFMjLlhIrx00" name="Page-1">
    <mxGraphModel dx="1632" dy="1575" grid="1" gridSize="10" guides="1" tooltips="1" connect="1" arrows="1" fold="1" page="1" pageScale="1" pageWidth="850" pageHeight="1100" math="0" shadow="0" extFonts="Permanent Marker^https://fonts.googleapis.com/css?family=Permanent+Marker">
      <root>
        <mxCell id="0" />
        <mxCell id="1" parent="0" />
        <mxCell id="rhAP4q0T7myvKvLChn9I-9" style="edgeStyle=orthogonalEdgeStyle;rounded=0;orthogonalLoop=1;jettySize=auto;html=1;exitX=1;exitY=0.5;exitDx=0;exitDy=0;" edge="1" parent="1" source="rhAP4q0T7myvKvLChn9I-1" target="rhAP4q0T7myvKvLChn9I-8">
          <mxGeometry relative="1" as="geometry" />
        </mxCell>
        <mxCell id="rhAP4q0T7myvKvLChn9I-10" style="edgeStyle=orthogonalEdgeStyle;rounded=0;orthogonalLoop=1;jettySize=auto;html=1;exitX=0.75;exitY=0;exitDx=0;exitDy=0;" edge="1" parent="1" source="rhAP4q0T7myvKvLChn9I-1" target="rhAP4q0T7myvKvLChn9I-6">
          <mxGeometry relative="1" as="geometry" />
        </mxCell>
        <mxCell id="rhAP4q0T7myvKvLChn9I-11" style="edgeStyle=orthogonalEdgeStyle;rounded=0;orthogonalLoop=1;jettySize=auto;html=1;exitX=0.25;exitY=0;exitDx=0;exitDy=0;entryX=0.694;entryY=0.963;entryDx=0;entryDy=0;entryPerimeter=0;" edge="1" parent="1" source="rhAP4q0T7myvKvLChn9I-1" target="rhAP4q0T7myvKvLChn9I-2">
          <mxGeometry relative="1" as="geometry" />
        </mxCell>
        <mxCell id="rhAP4q0T7myvKvLChn9I-12" style="edgeStyle=orthogonalEdgeStyle;rounded=0;orthogonalLoop=1;jettySize=auto;html=1;exitX=0;exitY=0.25;exitDx=0;exitDy=0;" edge="1" parent="1" source="rhAP4q0T7myvKvLChn9I-1" target="rhAP4q0T7myvKvLChn9I-3">
          <mxGeometry relative="1" as="geometry" />
        </mxCell>
        <mxCell id="rhAP4q0T7myvKvLChn9I-13" style="edgeStyle=orthogonalEdgeStyle;rounded=0;orthogonalLoop=1;jettySize=auto;html=1;exitX=0;exitY=0.75;exitDx=0;exitDy=0;entryX=0.944;entryY=0.263;entryDx=0;entryDy=0;entryPerimeter=0;" edge="1" parent="1" source="rhAP4q0T7myvKvLChn9I-1" target="rhAP4q0T7myvKvLChn9I-4">
          <mxGeometry relative="1" as="geometry" />
        </mxCell>
        <mxCell id="rhAP4q0T7myvKvLChn9I-14" style="edgeStyle=orthogonalEdgeStyle;rounded=0;orthogonalLoop=1;jettySize=auto;html=1;exitX=0.25;exitY=1;exitDx=0;exitDy=0;entryX=0.5;entryY=0;entryDx=0;entryDy=0;" edge="1" parent="1" source="rhAP4q0T7myvKvLChn9I-1" target="rhAP4q0T7myvKvLChn9I-5">
          <mxGeometry relative="1" as="geometry" />
        </mxCell>
        <mxCell id="rhAP4q0T7myvKvLChn9I-15" style="edgeStyle=orthogonalEdgeStyle;rounded=0;orthogonalLoop=1;jettySize=auto;html=1;exitX=0.75;exitY=1;exitDx=0;exitDy=0;entryX=0.364;entryY=-0.004;entryDx=0;entryDy=0;entryPerimeter=0;" edge="1" parent="1" source="rhAP4q0T7myvKvLChn9I-1" target="rhAP4q0T7myvKvLChn9I-7">
          <mxGeometry relative="1" as="geometry" />
        </mxCell>
        <mxCell id="rhAP4q0T7myvKvLChn9I-41" style="edgeStyle=none;rounded=0;orthogonalLoop=1;jettySize=auto;html=1;exitX=1;exitY=0.75;exitDx=0;exitDy=0;" edge="1" parent="1" source="rhAP4q0T7myvKvLChn9I-1" target="rhAP4q0T7myvKvLChn9I-40">
          <mxGeometry relative="1" as="geometry" />
        </mxCell>
        <mxCell id="rhAP4q0T7myvKvLChn9I-1" value="Customers" style="rounded=0;whiteSpace=wrap;html=1;" vertex="1" parent="1">
          <mxGeometry x="70" y="160" width="120" height="60" as="geometry" />
        </mxCell>
        <mxCell id="rhAP4q0T7myvKvLChn9I-2" value="customer_email" style="ellipse;whiteSpace=wrap;html=1;" vertex="1" parent="1">
          <mxGeometry x="-50" y="20" width="120" height="80" as="geometry" />
        </mxCell>
        <mxCell id="rhAP4q0T7myvKvLChn9I-3" value="customer_name" style="ellipse;whiteSpace=wrap;html=1;" vertex="1" parent="1">
          <mxGeometry x="-150" y="100" width="120" height="80" as="geometry" />
        </mxCell>
        <mxCell id="rhAP4q0T7myvKvLChn9I-4" value="customer_pw" style="ellipse;whiteSpace=wrap;html=1;" vertex="1" parent="1">
          <mxGeometry x="-150" y="210" width="120" height="80" as="geometry" />
        </mxCell>
        <mxCell id="rhAP4q0T7myvKvLChn9I-5" value="customer_status" style="ellipse;whiteSpace=wrap;html=1;" vertex="1" parent="1">
          <mxGeometry x="-50" y="310" width="120" height="80" as="geometry" />
        </mxCell>
        <mxCell id="rhAP4q0T7myvKvLChn9I-6" value="&lt;u&gt;customer_id&lt;/u&gt;" style="ellipse;whiteSpace=wrap;html=1;" vertex="1" parent="1">
          <mxGeometry x="100" y="30" width="120" height="80" as="geometry" />
        </mxCell>
        <mxCell id="rhAP4q0T7myvKvLChn9I-7" value="customer_date_created" style="ellipse;whiteSpace=wrap;html=1;" vertex="1" parent="1">
          <mxGeometry x="110" y="260" width="130" height="90" as="geometry" />
        </mxCell>
        <mxCell id="rhAP4q0T7myvKvLChn9I-28" style="edgeStyle=orthogonalEdgeStyle;rounded=0;orthogonalLoop=1;jettySize=auto;html=1;exitX=1;exitY=0.5;exitDx=0;exitDy=0;entryX=0;entryY=0.5;entryDx=0;entryDy=0;" edge="1" parent="1" source="rhAP4q0T7myvKvLChn9I-8" target="rhAP4q0T7myvKvLChn9I-16">
          <mxGeometry relative="1" as="geometry" />
        </mxCell>
        <mxCell id="rhAP4q0T7myvKvLChn9I-8" value="register" style="rhombus;whiteSpace=wrap;html=1;" vertex="1" parent="1">
          <mxGeometry x="350" y="140" width="110" height="100" as="geometry" />
        </mxCell>
        <mxCell id="rhAP4q0T7myvKvLChn9I-22" style="edgeStyle=orthogonalEdgeStyle;rounded=0;orthogonalLoop=1;jettySize=auto;html=1;exitX=0.25;exitY=0;exitDx=0;exitDy=0;entryX=0.417;entryY=1.013;entryDx=0;entryDy=0;entryPerimeter=0;" edge="1" parent="1" source="rhAP4q0T7myvKvLChn9I-16" target="rhAP4q0T7myvKvLChn9I-17">
          <mxGeometry relative="1" as="geometry" />
        </mxCell>
        <mxCell id="rhAP4q0T7myvKvLChn9I-23" style="edgeStyle=orthogonalEdgeStyle;rounded=0;orthogonalLoop=1;jettySize=auto;html=1;exitX=0.75;exitY=0;exitDx=0;exitDy=0;entryX=0;entryY=0.5;entryDx=0;entryDy=0;" edge="1" parent="1" source="rhAP4q0T7myvKvLChn9I-16" target="rhAP4q0T7myvKvLChn9I-18">
          <mxGeometry relative="1" as="geometry" />
        </mxCell>
        <mxCell id="rhAP4q0T7myvKvLChn9I-24" style="edgeStyle=orthogonalEdgeStyle;rounded=0;orthogonalLoop=1;jettySize=auto;html=1;exitX=0.25;exitY=1;exitDx=0;exitDy=0;entryX=0.383;entryY=0.038;entryDx=0;entryDy=0;entryPerimeter=0;" edge="1" parent="1" source="rhAP4q0T7myvKvLChn9I-16" target="rhAP4q0T7myvKvLChn9I-19">
          <mxGeometry relative="1" as="geometry" />
        </mxCell>
        <mxCell id="rhAP4q0T7myvKvLChn9I-26" style="edgeStyle=orthogonalEdgeStyle;rounded=0;orthogonalLoop=1;jettySize=auto;html=1;exitX=1;exitY=0.5;exitDx=0;exitDy=0;" edge="1" parent="1" source="rhAP4q0T7myvKvLChn9I-16" target="rhAP4q0T7myvKvLChn9I-21">
          <mxGeometry relative="1" as="geometry" />
        </mxCell>
        <mxCell id="rhAP4q0T7myvKvLChn9I-27" style="edgeStyle=orthogonalEdgeStyle;rounded=0;orthogonalLoop=1;jettySize=auto;html=1;exitX=0.75;exitY=1;exitDx=0;exitDy=0;entryX=0.033;entryY=0.321;entryDx=0;entryDy=0;entryPerimeter=0;" edge="1" parent="1" source="rhAP4q0T7myvKvLChn9I-16" target="rhAP4q0T7myvKvLChn9I-20">
          <mxGeometry relative="1" as="geometry" />
        </mxCell>
        <mxCell id="rhAP4q0T7myvKvLChn9I-16" value="tac" style="rounded=0;whiteSpace=wrap;html=1;" vertex="1" parent="1">
          <mxGeometry x="590" y="160" width="120" height="60" as="geometry" />
        </mxCell>
        <mxCell id="rhAP4q0T7myvKvLChn9I-17" value="&lt;u&gt;tac_id&lt;/u&gt;" style="ellipse;whiteSpace=wrap;html=1;" vertex="1" parent="1">
          <mxGeometry x="680" y="-50" width="120" height="80" as="geometry" />
        </mxCell>
        <mxCell id="rhAP4q0T7myvKvLChn9I-18" value="tac_phone" style="ellipse;whiteSpace=wrap;html=1;" vertex="1" parent="1">
          <mxGeometry x="750" y="70" width="120" height="80" as="geometry" />
        </mxCell>
        <mxCell id="rhAP4q0T7myvKvLChn9I-19" value="customer_id" style="ellipse;whiteSpace=wrap;html=1;" vertex="1" parent="1">
          <mxGeometry x="730" y="320" width="120" height="80" as="geometry" />
        </mxCell>
        <mxCell id="rhAP4q0T7myvKvLChn9I-20" value="tac_created_at" style="ellipse;whiteSpace=wrap;html=1;" vertex="1" parent="1">
          <mxGeometry x="830" y="270" width="120" height="80" as="geometry" />
        </mxCell>
        <mxCell id="rhAP4q0T7myvKvLChn9I-21" value="tac_value" style="ellipse;whiteSpace=wrap;html=1;" vertex="1" parent="1">
          <mxGeometry x="870" y="150" width="120" height="80" as="geometry" />
        </mxCell>
        <mxCell id="rhAP4q0T7myvKvLChn9I-35" style="edgeStyle=none;rounded=0;orthogonalLoop=1;jettySize=auto;html=1;exitX=0;exitY=0.5;exitDx=0;exitDy=0;entryX=1;entryY=0.5;entryDx=0;entryDy=0;" edge="1" parent="1" source="rhAP4q0T7myvKvLChn9I-39" target="rhAP4q0T7myvKvLChn9I-34">
          <mxGeometry relative="1" as="geometry">
            <mxPoint x="365" y="470" as="sourcePoint" />
          </mxGeometry>
        </mxCell>
        <mxCell id="rhAP4q0T7myvKvLChn9I-36" style="edgeStyle=none;rounded=0;orthogonalLoop=1;jettySize=auto;html=1;entryX=1;entryY=0;entryDx=0;entryDy=0;" edge="1" parent="1" source="rhAP4q0T7myvKvLChn9I-39" target="rhAP4q0T7myvKvLChn9I-33">
          <mxGeometry relative="1" as="geometry">
            <mxPoint x="385" y="490" as="sourcePoint" />
          </mxGeometry>
        </mxCell>
        <mxCell id="rhAP4q0T7myvKvLChn9I-37" style="edgeStyle=none;rounded=0;orthogonalLoop=1;jettySize=auto;html=1;" edge="1" parent="1" source="rhAP4q0T7myvKvLChn9I-39" target="rhAP4q0T7myvKvLChn9I-32">
          <mxGeometry relative="1" as="geometry">
            <mxPoint x="425" y="490" as="sourcePoint" />
          </mxGeometry>
        </mxCell>
        <mxCell id="rhAP4q0T7myvKvLChn9I-38" style="edgeStyle=none;rounded=0;orthogonalLoop=1;jettySize=auto;html=1;exitX=1.017;exitY=0.628;exitDx=0;exitDy=0;exitPerimeter=0;" edge="1" parent="1" source="rhAP4q0T7myvKvLChn9I-39" target="rhAP4q0T7myvKvLChn9I-31">
          <mxGeometry relative="1" as="geometry">
            <mxPoint x="445" y="470" as="sourcePoint" />
          </mxGeometry>
        </mxCell>
        <mxCell id="rhAP4q0T7myvKvLChn9I-31" value="&lt;u&gt;checkin_id&lt;/u&gt;" style="ellipse;whiteSpace=wrap;html=1;" vertex="1" parent="1">
          <mxGeometry x="520" y="430" width="120" height="80" as="geometry" />
        </mxCell>
        <mxCell id="rhAP4q0T7myvKvLChn9I-32" value="checkin_phone" style="ellipse;whiteSpace=wrap;html=1;" vertex="1" parent="1">
          <mxGeometry x="440" y="550" width="120" height="80" as="geometry" />
        </mxCell>
        <mxCell id="rhAP4q0T7myvKvLChn9I-33" value="checkin_location" style="ellipse;whiteSpace=wrap;html=1;" vertex="1" parent="1">
          <mxGeometry x="220" y="530" width="120" height="80" as="geometry" />
        </mxCell>
        <mxCell id="rhAP4q0T7myvKvLChn9I-34" value="checkin_date" style="ellipse;whiteSpace=wrap;html=1;" vertex="1" parent="1">
          <mxGeometry x="150" y="420" width="120" height="80" as="geometry" />
        </mxCell>
        <mxCell id="rhAP4q0T7myvKvLChn9I-45" style="edgeStyle=none;rounded=0;orthogonalLoop=1;jettySize=auto;html=1;exitX=0.5;exitY=1;exitDx=0;exitDy=0;entryX=0.5;entryY=0;entryDx=0;entryDy=0;" edge="1" parent="1" source="rhAP4q0T7myvKvLChn9I-39" target="rhAP4q0T7myvKvLChn9I-43">
          <mxGeometry relative="1" as="geometry" />
        </mxCell>
        <mxCell id="rhAP4q0T7myvKvLChn9I-39" value="check in" style="rounded=0;whiteSpace=wrap;html=1;" vertex="1" parent="1">
          <mxGeometry x="340" y="400" width="120" height="60" as="geometry" />
        </mxCell>
        <mxCell id="rhAP4q0T7myvKvLChn9I-42" style="edgeStyle=none;rounded=0;orthogonalLoop=1;jettySize=auto;html=1;exitX=1;exitY=1;exitDx=0;exitDy=0;entryX=0.411;entryY=0.006;entryDx=0;entryDy=0;entryPerimeter=0;" edge="1" parent="1" source="rhAP4q0T7myvKvLChn9I-40" target="rhAP4q0T7myvKvLChn9I-39">
          <mxGeometry relative="1" as="geometry" />
        </mxCell>
        <mxCell id="rhAP4q0T7myvKvLChn9I-40" value="check in&amp;nbsp;" style="rhombus;whiteSpace=wrap;html=1;" vertex="1" parent="1">
          <mxGeometry x="320" y="270" width="80" height="80" as="geometry" />
        </mxCell>
        <mxCell id="rhAP4q0T7myvKvLChn9I-50" style="edgeStyle=none;rounded=0;orthogonalLoop=1;jettySize=auto;html=1;exitX=0.5;exitY=1;exitDx=0;exitDy=0;" edge="1" parent="1" source="rhAP4q0T7myvKvLChn9I-43" target="rhAP4q0T7myvKvLChn9I-44">
          <mxGeometry relative="1" as="geometry" />
        </mxCell>
        <mxCell id="rhAP4q0T7myvKvLChn9I-43" value="into business" style="rhombus;whiteSpace=wrap;html=1;" vertex="1" parent="1">
          <mxGeometry x="350" y="650" width="80" height="80" as="geometry" />
        </mxCell>
        <mxCell id="rhAP4q0T7myvKvLChn9I-51" style="edgeStyle=none;rounded=0;orthogonalLoop=1;jettySize=auto;html=1;exitX=0;exitY=0.25;exitDx=0;exitDy=0;" edge="1" parent="1" source="rhAP4q0T7myvKvLChn9I-44" target="rhAP4q0T7myvKvLChn9I-46">
          <mxGeometry relative="1" as="geometry" />
        </mxCell>
        <mxCell id="rhAP4q0T7myvKvLChn9I-52" style="edgeStyle=none;rounded=0;orthogonalLoop=1;jettySize=auto;html=1;exitX=0.25;exitY=1;exitDx=0;exitDy=0;entryX=0.561;entryY=0.021;entryDx=0;entryDy=0;entryPerimeter=0;" edge="1" parent="1" source="rhAP4q0T7myvKvLChn9I-44" target="rhAP4q0T7myvKvLChn9I-47">
          <mxGeometry relative="1" as="geometry" />
        </mxCell>
        <mxCell id="rhAP4q0T7myvKvLChn9I-53" style="edgeStyle=none;rounded=0;orthogonalLoop=1;jettySize=auto;html=1;exitX=0.75;exitY=1;exitDx=0;exitDy=0;" edge="1" parent="1" source="rhAP4q0T7myvKvLChn9I-44" target="rhAP4q0T7myvKvLChn9I-48">
          <mxGeometry relative="1" as="geometry" />
        </mxCell>
        <mxCell id="rhAP4q0T7myvKvLChn9I-54" style="edgeStyle=none;rounded=0;orthogonalLoop=1;jettySize=auto;html=1;exitX=1;exitY=0.5;exitDx=0;exitDy=0;entryX=0.017;entryY=0.596;entryDx=0;entryDy=0;entryPerimeter=0;" edge="1" parent="1" source="rhAP4q0T7myvKvLChn9I-44" target="rhAP4q0T7myvKvLChn9I-49">
          <mxGeometry relative="1" as="geometry" />
        </mxCell>
        <mxCell id="rhAP4q0T7myvKvLChn9I-44" value="company" style="rounded=0;whiteSpace=wrap;html=1;" vertex="1" parent="1">
          <mxGeometry x="340" y="780" width="120" height="60" as="geometry" />
        </mxCell>
        <mxCell id="rhAP4q0T7myvKvLChn9I-46" value="company_date_created" style="ellipse;whiteSpace=wrap;html=1;" vertex="1" parent="1">
          <mxGeometry x="130" y="780" width="150" height="90" as="geometry" />
        </mxCell>
        <mxCell id="rhAP4q0T7myvKvLChn9I-47" value="company_name" style="ellipse;whiteSpace=wrap;html=1;" vertex="1" parent="1">
          <mxGeometry x="290" y="910" width="120" height="80" as="geometry" />
        </mxCell>
        <mxCell id="rhAP4q0T7myvKvLChn9I-48" value="company_branch" style="ellipse;whiteSpace=wrap;html=1;" vertex="1" parent="1">
          <mxGeometry x="500" y="900" width="120" height="80" as="geometry" />
        </mxCell>
        <mxCell id="rhAP4q0T7myvKvLChn9I-49" value="&lt;u&gt;company_id&lt;/u&gt;" style="ellipse;whiteSpace=wrap;html=1;" vertex="1" parent="1">
          <mxGeometry x="540" y="750" width="120" height="80" as="geometry" />
        </mxCell>
        <mxCell id="rhAP4q0T7myvKvLChn9I-64" style="edgeStyle=none;rounded=0;orthogonalLoop=1;jettySize=auto;html=1;exitX=0.25;exitY=0;exitDx=0;exitDy=0;entryX=0.739;entryY=0.987;entryDx=0;entryDy=0;entryPerimeter=0;" edge="1" parent="1" source="rhAP4q0T7myvKvLChn9I-55" target="rhAP4q0T7myvKvLChn9I-56">
          <mxGeometry relative="1" as="geometry" />
        </mxCell>
        <mxCell id="rhAP4q0T7myvKvLChn9I-65" style="edgeStyle=none;rounded=0;orthogonalLoop=1;jettySize=auto;html=1;exitX=0.75;exitY=0;exitDx=0;exitDy=0;entryX=0.567;entryY=1.021;entryDx=0;entryDy=0;entryPerimeter=0;" edge="1" parent="1" source="rhAP4q0T7myvKvLChn9I-55" target="rhAP4q0T7myvKvLChn9I-62">
          <mxGeometry relative="1" as="geometry" />
        </mxCell>
        <mxCell id="rhAP4q0T7myvKvLChn9I-66" style="edgeStyle=none;rounded=0;orthogonalLoop=1;jettySize=auto;html=1;exitX=1;exitY=0.5;exitDx=0;exitDy=0;" edge="1" parent="1" source="rhAP4q0T7myvKvLChn9I-55" target="rhAP4q0T7myvKvLChn9I-58">
          <mxGeometry relative="1" as="geometry" />
        </mxCell>
        <mxCell id="rhAP4q0T7myvKvLChn9I-67" style="edgeStyle=none;rounded=0;orthogonalLoop=1;jettySize=auto;html=1;exitX=1;exitY=0;exitDx=0;exitDy=0;" edge="1" parent="1" source="rhAP4q0T7myvKvLChn9I-55" target="rhAP4q0T7myvKvLChn9I-57">
          <mxGeometry relative="1" as="geometry" />
        </mxCell>
        <mxCell id="rhAP4q0T7myvKvLChn9I-68" style="edgeStyle=none;rounded=0;orthogonalLoop=1;jettySize=auto;html=1;exitX=1;exitY=1;exitDx=0;exitDy=0;entryX=0.094;entryY=0.238;entryDx=0;entryDy=0;entryPerimeter=0;" edge="1" parent="1" source="rhAP4q0T7myvKvLChn9I-55" target="rhAP4q0T7myvKvLChn9I-59">
          <mxGeometry relative="1" as="geometry" />
        </mxCell>
        <mxCell id="rhAP4q0T7myvKvLChn9I-69" style="edgeStyle=none;rounded=0;orthogonalLoop=1;jettySize=auto;html=1;exitX=0.75;exitY=1;exitDx=0;exitDy=0;entryX=0.367;entryY=0.013;entryDx=0;entryDy=0;entryPerimeter=0;" edge="1" parent="1" source="rhAP4q0T7myvKvLChn9I-55" target="rhAP4q0T7myvKvLChn9I-60">
          <mxGeometry relative="1" as="geometry" />
        </mxCell>
        <mxCell id="rhAP4q0T7myvKvLChn9I-70" style="edgeStyle=none;rounded=0;orthogonalLoop=1;jettySize=auto;html=1;exitX=0.25;exitY=1;exitDx=0;exitDy=0;entryX=0.7;entryY=0.063;entryDx=0;entryDy=0;entryPerimeter=0;" edge="1" parent="1" source="rhAP4q0T7myvKvLChn9I-55" target="rhAP4q0T7myvKvLChn9I-61">
          <mxGeometry relative="1" as="geometry" />
        </mxCell>
        <mxCell id="rhAP4q0T7myvKvLChn9I-55" value="admin" style="rounded=0;whiteSpace=wrap;html=1;" vertex="1" parent="1">
          <mxGeometry x="840" y="590" width="120" height="60" as="geometry" />
        </mxCell>
        <mxCell id="rhAP4q0T7myvKvLChn9I-56" value="&lt;u&gt;admin_id&lt;/u&gt;" style="ellipse;whiteSpace=wrap;html=1;" vertex="1" parent="1">
          <mxGeometry x="720" y="460" width="120" height="80" as="geometry" />
        </mxCell>
        <mxCell id="rhAP4q0T7myvKvLChn9I-57" value="admin_pw" style="ellipse;whiteSpace=wrap;html=1;" vertex="1" parent="1">
          <mxGeometry x="1020" y="440" width="120" height="80" as="geometry" />
        </mxCell>
        <mxCell id="rhAP4q0T7myvKvLChn9I-58" value="admin_name" style="ellipse;whiteSpace=wrap;html=1;" vertex="1" parent="1">
          <mxGeometry x="1040" y="570" width="120" height="80" as="geometry" />
        </mxCell>
        <mxCell id="rhAP4q0T7myvKvLChn9I-59" value="admin_contact" style="ellipse;whiteSpace=wrap;html=1;" vertex="1" parent="1">
          <mxGeometry x="1050" y="700" width="120" height="80" as="geometry" />
        </mxCell>
        <mxCell id="rhAP4q0T7myvKvLChn9I-60" value="admin_email" style="ellipse;whiteSpace=wrap;html=1;" vertex="1" parent="1">
          <mxGeometry x="890" y="720" width="120" height="80" as="geometry" />
        </mxCell>
        <mxCell id="rhAP4q0T7myvKvLChn9I-61" value="admin_status" style="ellipse;whiteSpace=wrap;html=1;" vertex="1" parent="1">
          <mxGeometry x="740" y="700" width="120" height="80" as="geometry" />
        </mxCell>
        <mxCell id="rhAP4q0T7myvKvLChn9I-62" value="admin_username" style="ellipse;whiteSpace=wrap;html=1;" vertex="1" parent="1">
          <mxGeometry x="870" y="440" width="120" height="80" as="geometry" />
        </mxCell>
      </root>
    </mxGraphModel>
  </diagram>
</mxfile>
